HIERARCHY
ROOT Hips
{
	OFFSET 0.00000 0.00000 0.00000
	CHANNELS 6 Xposition Yposition Zposition Zrotation Yrotation Xrotation 
	JOINT LHipJoint
	{
		OFFSET 0 0 0
		CHANNELS 3 Zrotation Yrotation Xrotation
		JOINT LeftUpLeg
		{
			OFFSET 3.13874 -1.57224 1.49786
			CHANNELS 3 Zrotation Yrotation Xrotation
			JOINT LeftLeg
			{
				OFFSET 2.10955 -5.79594 0.00000
				CHANNELS 3 Zrotation Yrotation Xrotation
				JOINT LeftFoot
				{
					OFFSET 2.41843 -6.64458 0.00000
					CHANNELS 3 Zrotation Yrotation Xrotation
					JOINT LeftToeBase
					{
						OFFSET 0.04713 -0.12948 1.66229
						CHANNELS 3 Zrotation Yrotation Xrotation
						End Site
						{
							OFFSET 0.00000 -0.00000 0.85167
						}
					}
				}
			}
		}
	}
	JOINT RHipJoint
	{
		OFFSET 0 0 0
		CHANNELS 3 Zrotation Yrotation Xrotation
		JOINT RightUpLeg
		{
			OFFSET -3.13988 -1.57224 1.49786
			CHANNELS 3 Zrotation Yrotation Xrotation
			JOINT RightLeg
			{
				OFFSET -2.15006 -5.90725 0.00000
				CHANNELS 3 Zrotation Yrotation Xrotation
				JOINT RightFoot
				{
					OFFSET -2.34496 -6.44273 0.00000
					CHANNELS 3 Zrotation Yrotation Xrotation
					JOINT RightToeBase
					{
						OFFSET -0.08699 -0.23900 1.55223
						CHANNELS 3 Zrotation Yrotation Xrotation
						End Site
						{
							OFFSET -0.00000 -0.00000 0.80281
						}
					}
				}
			}
		}
	}
	JOINT LowerBack
	{
		OFFSET 0 0 0
		CHANNELS 3 Zrotation Yrotation Xrotation
		JOINT Spine
		{
			OFFSET 0.01292 1.96517 -0.16495
			CHANNELS 3 Zrotation Yrotation Xrotation
			JOINT Spine1
			{
				OFFSET 0.02122 1.88666 0.19706
				CHANNELS 3 Zrotation Yrotation Xrotation
				JOINT Neck
				{
					OFFSET 0 0 0
					CHANNELS 3 Zrotation Yrotation Xrotation
					JOINT Neck1
					{
						OFFSET -0.01683 1.81591 0.07903
						CHANNELS 3 Zrotation Yrotation Xrotation
						JOINT Head
						{
							OFFSET 0.00815 1.74013 -0.47700
							CHANNELS 3 Zrotation Yrotation Xrotation
							End Site
							{
								OFFSET -0.00204 1.83225 -0.16933
							}
						}
					}
				}
				JOINT LeftShoulder
				{
					OFFSET 0 0 0
					CHANNELS 3 Zrotation Yrotation Xrotation
					JOINT LeftArm
					{
						OFFSET 3.38482 1.41533 0.19802
						CHANNELS 3 Zrotation Yrotation Xrotation
						JOINT LeftForeArm
						{
							OFFSET 4.32712 -0.00000 0.00000
							CHANNELS 3 Zrotation Yrotation Xrotation
							JOINT LeftHand
							{
								OFFSET 3.28587 -0.00000 -0.00000
								CHANNELS 3 Zrotation Yrotation Xrotation
								JOINT LeftFingerBase
								{
									OFFSET 0 0 0
									CHANNELS 3 Zrotation Yrotation Xrotation
									JOINT LeftHandIndex1
									{
										OFFSET 0.43316 -0.00000 -0.00000
										CHANNELS 3 Zrotation Yrotation Xrotation
										End Site
										{
											OFFSET 0.34922 -0.00000 -0.00000
										}
									}
								}
								JOINT LThumb
								{
									OFFSET 0 0 0
									CHANNELS 3 Zrotation Yrotation Xrotation
									End Site
									{
										OFFSET 0.35456 -0.00000 0.35456
									}
								}
							}
						}
					}
				}
				JOINT RightShoulder
				{
					OFFSET 0 0 0
					CHANNELS 3 Zrotation Yrotation Xrotation
					JOINT RightArm
					{
						OFFSET -3.09725 1.62858 -0.14144
						CHANNELS 3 Zrotation Yrotation Xrotation
						JOINT RightForeArm
						{
							OFFSET -4.29104 -0.00000 0.00000
							CHANNELS 3 Zrotation Yrotation Xrotation
							JOINT RightHand
							{
								OFFSET -3.22720 -0.00000 -0.00000
								CHANNELS 3 Zrotation Yrotation Xrotation
								JOINT RightFingerBase
								{
									OFFSET 0 0 0
									CHANNELS 3 Zrotation Yrotation Xrotation
									JOINT RightHandIndex1
									{
										OFFSET -0.54362 -0.00000 -0.00000
										CHANNELS 3 Zrotation Yrotation Xrotation
										End Site
										{
											OFFSET -0.43828 -0.00000 -0.00000
										}
									}
								}
								JOINT RThumb
								{
									OFFSET 0 0 0
									CHANNELS 3 Zrotation Yrotation Xrotation
									End Site
									{
										OFFSET -0.44497 -0.00000 0.44497
									}
								}
							}
						}
					}
				}
			}
		}
	}
}
MOTION
Frames: 6
Frame Time: .0083333
-6.0843 16.6038 2.0603 -304.5020 86.5778 -289.3880 0.0000 0.0000 0.0000 -34.0790 0.5888 5.5921 2.4827 9.8063 28.3518 -2.8454 28.4015 -8.0188 6.8723 -15.2234 -48.3897 0.0000 0.0000 0.0000 21.5710 23.1085 -30.7762 -0.4424 -4.2678 11.8313 1.3567 -20.1812 -5.5739 -0.1224 -2.2552 6.2116 -3.2027 -3.5294 11.9183 2.6118 -4.7352 -14.1334 6.2938 -0.9477 -22.7385 7.9535 5.4717 -15.5144 -8.4243 9.8435 33.8600 -3.0591 4.4890 15.3016 -0.0000 -0.0000 0.0000 -78.3997 16.4658 57.6538 120.3888 -56.2055 -85.9822 -0.0000 0.0000 -1.9654 38.7668 20.8330 15.9397 -7.1250 0.0000 -0.0000 11.2202 55.6413 2.9570 -0.0000 -0.0000 0.0000 64.1660 -46.1587 47.9684 -20.7860 31.5776 -5.9375 0.0000 -0.0000 -12.0431 -31.3197 -17.0224 10.1001 7.1250 -0.0000 -0.0000 -3.4182 -49.6659 0.3936
-5.3966 16.4646 2.0857 -296.4970 86.3822 -282.4290 0.0000 0.0000 0.0000 -33.3792 1.9245 2.8840 4.0877 12.2762 36.7161 -2.4514 26.4898 -12.6045 6.0455 -14.4723 -45.1641 0.0000 0.0000 0.0000 23.4240 20.4711 -27.5614 -0.4812 -4.4486 12.3422 0.1354 -11.2432 5.6760 -1.4574 7.6302 -21.5965 -3.2345 -3.4257 12.1960 2.3374 -4.6740 -13.8784 5.9771 -0.9712 -22.6093 7.9176 5.3197 -15.5749 -8.8056 9.7869 33.8926 -3.2254 4.4157 15.3506 0.0000 -0.0000 0.0000 -78.5629 17.6510 59.3360 119.9917 -56.3121 -85.6520 -0.0000 0.0000 -2.0593 36.9743 21.0615 15.1391 -7.1250 0.0000 -0.0000 9.1464 55.4817 2.3675 0.0000 -0.0000 0.0000 64.3418 -45.4299 48.8971 -21.5548 32.4702 -6.3452 0.0000 -0.0000 -12.7714 -30.2856 -17.0224 9.7020 7.1250 -0.0000 -0.0000 -2.3815 -49.4868 0.2636
-4.7306 16.2567 2.1075 -291.0240 86.3185 -278.1340 0.0000 0.0000 0.0000 -32.4947 2.9075 0.3315 5.8344 14.2659 44.3135 -1.6017 23.1696 -17.6539 5.3595 -13.7775 -42.3536 0.0000 0.0000 0.0000 25.1617 18.2359 -24.2212 -0.5535 -4.7656 13.2413 0.1268 -6.8242 0.3003 -1.3748 7.4201 -20.9660 -3.1525 -3.2244 12.7711 2.1964 -4.4350 -13.5817 5.7224 -0.9094 -22.6521 7.8423 5.1061 -15.1670 -9.4392 9.7236 33.5245 -3.4916 4.3206 15.1132 -0.0000 0.0000 0.0000 -79.0733 18.9648 60.3916 118.4760 -56.7025 -84.3879 -0.0000 0.0000 -1.8789 35.0490 21.0842 14.1629 -7.1250 0.0000 -0.0000 6.9640 55.0632 1.7271 -0.0000 0.0000 0.0000 64.3915 -44.3416 49.9539 -22.3490 33.3692 -6.7768 0.0000 -0.0000 -13.5433 -29.8200 -16.7280 9.3680 7.1250 -0.0000 -0.0000 -1.9546 -49.0768 0.1966
-4.0930 16.0025 2.1274 -287.8180 86.5930 -276.3080 0.0000 0.0000 0.0000 -31.3299 3.6276 -2.1171 7.6700 15.8711 51.3652 -0.4121 18.3012 -22.0504 4.3851 -12.6559 -38.0938 0.0000 0.0000 0.0000 27.0903 16.4452 -20.7435 -0.6170 -5.0273 13.9863 0.0823 -5.2626 -3.3846 -0.3228 3.6520 -10.0996 -2.7843 -2.9313 13.8334 2.2497 -3.9747 -13.2379 5.4950 -0.7594 -23.0018 6.6751 4.8071 -14.8790 -9.6167 9.6845 33.1221 -3.3591 4.1535 14.7948 0.0000 -0.0000 0.0000 -79.8745 20.3842 60.6472 115.7033 -57.3502 -82.0617 -0.0000 0.0000 -1.4045 34.0014 21.2749 13.7530 -7.1250 0.0000 -0.0000 5.7739 55.0459 1.4279 0.0000 -0.0000 0.0000 64.5730 -42.7089 50.7291 -22.6635 33.7188 -6.9506 0.0000 -0.0000 -13.0855 -30.0733 -15.8154 8.9682 7.1250 -0.0000 -0.0000 -2.3109 -48.0907 0.1763
-3.4839 15.7338 2.1422 -288.4650 87.1010 -278.5780 0.0000 0.0000 0.0000 -30.0432 4.0316 -4.7526 9.4159 17.0680 57.5175 0.7181 12.5465 -25.0327 3.7983 -11.8871 -35.3337 0.0000 0.0000 0.0000 28.8788 16.4054 -18.7568 -1.0681 -6.5702 18.4482 -0.0889 -3.2596 -7.7883 -0.2548 3.2476 -8.9688 -2.1494 -2.5015 15.4712 2.4308 -3.2338 -12.7808 5.1893 -0.5128 -23.6263 5.3315 4.4158 -14.5506 -9.9207 9.5514 32.4738 -3.2572 3.9152 14.3533 -0.0000 0.0000 0.0000 -80.7719 21.6204 60.2019 111.5250 -58.1748 -78.5270 -0.0000 0.0000 -0.6809 33.1507 22.5015 14.0344 -7.1250 0.0000 -0.0000 4.6481 56.2446 1.2838 -0.0000 0.0000 0.0000 65.0987 -40.3410 50.6636 -22.5683 33.6134 -6.8978 0.0000 -0.0000 -11.8984 -30.2514 -15.9047 9.0804 7.1250 -0.0000 -0.0000 -2.4757 -48.2201 0.1968
-2.9255 15.5339 2.1540 -250.8060 92.5919 -241.0900 0.0000 0.0000 0.0000 -23.3379 3.8419 -10.5170 11.4115 18.1306 64.1109 1.4220 7.1303 -26.1096 3.2221 -11.0461 -32.4356 0.0000 0.0000 0.0000 35.5024 17.1173 -18.2945 -1.7074 -8.2281 23.4089 -0.3273 -0.3815 -10.9518 -0.2150 2.9850 -8.2369 3.0722 -2.2759 16.4305 3.9986 -1.0374 -12.6504 3.2870 -0.2407 -24.4753 4.0170 3.9925 -14.9141 -10.0317 9.3789 32.5141 -3.0939 3.6596 14.3777 0.0000 -0.0000 0.0000 -81.4597 23.0399 59.2545 106.8478 -58.8998 -74.5367 -0.0000 -0.0000 0.1870 32.2211 24.4373 14.6135 -7.1250 0.0000 -0.0000 3.2077 58.1924 1.0360 0.0000 -0.0000 0.0000 65.6297 -37.7079 50.0308 -22.4939 33.5307 -6.8567 0.0000 -0.0000 -10.4242 -30.2229 -17.4595 9.9142 7.1250 -0.0000 -0.0000 -2.2635 -49.9677 0.2773
